# xmcd
#
# Track frame offsets:
#	150
#	15252
#	27812
#	41492
#	53870
#	68122
#	81169
#	98931
#	112385
#	126497
#	140884
#	153754
#
# Disc length: 2198 seconds
#
# Revision: 1
# Processed by: cddbd v1.5.2PL0 Copyright (c) Steve Scherf et al.
# Submitted via: audiograbber 1.83.01
#
DISCID=a208940c
DTITLE=BANDA EL RECODO - EXITOS DEL RECODO
DYEAR=1900
DGENRE=
TTITLE0=PARECE MENTIRA
TTITLE1=QUE MAS QUISIERA
TTITLE2=HAY AMOR
TTITLE3=EL CLUB DE LAS FEAS
TTITLE4=COMO PUDISTE
TTITLE5=MUJERES DIVINAS
TTITLE6=LO MEJOR DE MI VIDA
TTITLE7=NO ME SE RAJAR
TTITLE8=NO ME DEJES NUNCA NUNCA
TTITLE9=YO SE QUE TE ACORDARAS
TTITLE10=QUIERO QUE SEPAS
TTITLE11=TENGO UNA ILUSION
EXTD=
EXTT0=
EXTT1=
EXTT2=
EXTT3=
EXTT4=
EXTT5=
EXTT6=
EXTT7=
EXTT8=
EXTT9=
EXTT10=
EXTT11=
PLAYORDER=
